<svg data-name="Componente 8 – 19" xmlns="http://www.w3.org/2000/svg" width="58.818" height="52.458" viewBox="0 0 58.818 52.458"><g data-name="Grupo 17"><path data-name="Trazado 418" d="M42.344 0c.352.045.7.1 1.055.134a16.071 16.071 0 0 1 3.937.908 17.16 17.16 0 0 1 7.015 4.659 16.78 16.78 0 0 1 4.114 8.085 16.526 16.526 0 0 1 .266 5.016 16.747 16.747 0 0 1-3.3 8.482 17.224 17.224 0 0 1-8.328 6.051c-.849.294-1.734.481-2.638.727v5.77h6.665v5.532h-6.682v7.1h-6.146v-7.085h-6.961v-5.525h6.933v-5.828a18.561 18.561 0 0 1-4.566-1.479 17.342 17.342 0 0 1-5.227-3.85 16.888 16.888 0 0 1-4.507-12.678 16.487 16.487 0 0 1 2.867-8.349A17.051 17.051 0 0 1 36.923.588C37.956.319 39.037.239 40.096.07c.1-.016.2-.043.294-.065Zm-1.209 29.811a14.2 14.2 0 0 0 4.153-.568 12.7 12.7 0 0 0 6.231-4.143 12.2 12.2 0 0 0 2.77-6.5 12.457 12.457 0 0 0-.334-4.709 12.292 12.292 0 0 0-4.417-6.645 12.728 12.728 0 0 0-10.485-2.54 12.42 12.42 0 0 0-7.341 4.215 12.25 12.25 0 0 0-2.955 10.095 11.952 11.952 0 0 0 2.912 6.294 12.781 12.781 0 0 0 9.466 4.501Z" fill="#6e0052"/></g><g data-name="Grupo 18"><path data-name="Trazado 419" d="M26.002 15.686a12.086 12.086 0 0 0-9.105-3.836 9.551 9.551 0 0 0-5.325 1.489l1.432-8.418h13V-.004H8.593L5.624 18.219l5.174 1.433a7.178 7.178 0 0 1 5.646-2.874 7.267 7.267 0 0 1 5.67 2.5 9.212 9.212 0 0 1 2.232 6.371 8.431 8.431 0 0 1-2.261 5.888 7.084 7.084 0 0 1-5.411 2.474 6.966 6.966 0 0 1-4.982-1.96 8.966 8.966 0 0 1-2.382-4.086H3.837a13.1 13.1 0 0 0 3.927 7.592 13.129 13.129 0 0 0 18.152-.544 13.571 13.571 0 0 0 3.751-9.763 13.307 13.307 0 0 0-3.665-9.564Z" fill="#6e0052"/></g><g data-name="Grupo 19" fill="#b80069"><path data-name="Trazado 420" d="M3.85 26.791v-3.1c0-.763-.4-1.456-1.186-1.456a1.321 1.321 0 0 0-1.232 1.456v3.1H0v-5.8h1.326l.106.7a1.677 1.677 0 0 1 1.526-.8 1.734 1.734 0 0 1 1.714 1.08 2.1 2.1 0 0 1 1.937-1.056c1.643 0 2.453 1.01 2.453 2.747v3.122H7.63v-3.122c0-.763-.317-1.409-1.092-1.409a1.317 1.317 0 0 0-1.256 1.432v3.1Z"/><path data-name="Trazado 421" d="m15.061 21.802.047-.8h1.373v5.787h-1.35l-.07-.845a2.2 2.2 0 0 1-1.878 1.021 3.052 3.052 0 0 1 .035-6.1 2.125 2.125 0 0 1 1.843.937Zm-1.714.34a1.755 1.755 0 0 0 0 3.51 1.756 1.756 0 0 0-.001-3.509Zm1.632-3.686h-1.69l-.869 1.6v.07h1.268l1.291-1.608Z"/><path data-name="Trazado 422" d="M21.468 22.542a1.951 1.951 0 0 0-1.432-.516c-.681 0-1.056.211-1.056.575s.34.587 1.08.634c1.092.07 2.477.317 2.477 1.855 0 1.021-.833 1.9-2.489 1.9a3.386 3.386 0 0 1-2.676-1.033l.7-1.021a3.175 3.175 0 0 0 2 .81c.54.012 1.045-.27 1.045-.693 0-.4-.329-.564-1.15-.611-1.092-.082-2.395-.481-2.395-1.8 0-1.338 1.385-1.808 2.442-1.808a3.108 3.108 0 0 1 2.254.763Z"/></g></svg>